<?xml version="1.0" standalone="no"?>
<!DOCTYPE svg PUBLIC "-//W3C//DTD SVG 20010904//EN"
 "http://www.w3.org/TR/2001/REC-SVG-20010904/DTD/svg10.dtd">
<svg version="1.0" xmlns="http://www.w3.org/2000/svg"
 width="100.000000pt" height="100.000000pt" viewBox="0 0 100.000000 100.000000"
 preserveAspectRatio="xMidYMid meet">
<metadata>
Created by potrace 1.11, written by Peter Selinger 2001-2013
</metadata>
<g transform="translate(0.000000,100.000000) scale(0.100000,-0.100000)"
fill="#000000" stroke="none">
<path d="M475 980 c-9 -14 -185 -799 -185 -824 0 -12 9 -39 20 -61 11 -22 20
-41 20 -42 0 -8 -224 -1 -241 7 -22 13 -25 43 -5 59 11 9 28 9 75 0 45 -10 64
-10 72 -2 17 17 4 29 -45 42 -92 23 -137 11 -155 -39 -12 -35 -7 -56 22 -88
20 -21 26 -22 224 -22 196 0 203 1 203 20 0 11 -6 20 -12 20 -7 0 -30 5 -51
11 -42 11 -77 56 -77 99 0 14 37 190 82 391 l82 365 43 -24 c55 -30 137 -28
183 6 26 20 29 20 34 4 30 -101 166 -747 161 -765 -12 -38 -55 -75 -97 -82
-51 -9 -50 -39 2 -43 72 -5 140 66 140 148 0 63 -173 823 -188 828 -7 2 -28
-10 -47 -27 -67 -58 -144 -59 -200 -1 -29 31 -49 37 -60 20z"/>
<path d="M534 745 c-7 -18 3 -35 21 -35 21 0 28 19 15 35 -16 19 -29 19 -36 0z"/>
<path d="M693 744 c-8 -21 13 -42 28 -27 13 13 5 43 -11 43 -6 0 -13 -7 -17
-16z"/>
<path d="M440 422 c0 -32 69 -361 80 -381 13 -25 30 -29 117 -29 60 0 74 3 91
21 23 27 98 385 83 400 -25 25 -39 -6 -65 -140 -48 -241 -46 -233 -67 -233
-18 0 -19 9 -19 144 0 113 -3 146 -15 156 -29 24 -35 0 -35 -144 0 -107 -3
-146 -13 -155 -29 -23 -44 12 -76 179 -18 91 -34 173 -37 183 -7 23 -44 23
-44 -1z"/>
</g>
</svg>
