<?xml version="1.0" encoding="UTF-8" standalone="no"?>
<svg
   xmlns:dc="http://purl.org/dc/elements/1.1/"
   xmlns:cc="http://creativecommons.org/ns#"
   xmlns:rdf="http://www.w3.org/1999/02/22-rdf-syntax-ns#"
   xmlns:svg="http://www.w3.org/2000/svg"
   xmlns="http://www.w3.org/2000/svg"
   xmlns:sodipodi="http://sodipodi.sourceforge.net/DTD/sodipodi-0.dtd"
   xmlns:inkscape="http://www.inkscape.org/namespaces/inkscape"
   inkscape:version="1.0 (4035a4f, 2020-05-01)"
   sodipodi:docname="android-chrome-96x96.svg"
   id="svg159"
   preserveAspectRatio="xMidYMid meet"
   viewBox="0 0 960 960"
   height="96px"
   width="96px"
   version="1.0">
  <metadata
     id="metadata165">
    <rdf:RDF>
      <cc:Work
         rdf:about="">
        <dc:format>image/svg+xml</dc:format>
        <dc:type
           rdf:resource="http://purl.org/dc/dcmitype/StillImage" />
        <dc:title></dc:title>
      </cc:Work>
    </rdf:RDF>
  </metadata>
  <defs
     id="defs163" />
  <sodipodi:namedview
     inkscape:object-paths="true"
     inkscape:snap-bbox="true"
     inkscape:current-layer="layer102"
     inkscape:window-maximized="0"
     inkscape:window-y="23"
     inkscape:window-x="0"
     inkscape:cy="48.391837"
     inkscape:cx="29.714286"
     inkscape:zoom="7.65625"
     inkscape:pagecheckerboard="false"
     showgrid="false"
     id="namedview161"
     inkscape:window-height="787"
     inkscape:window-width="1197"
     inkscape:pageshadow="2"
     inkscape:pageopacity="0"
     guidetolerance="10"
     gridtolerance="10"
     objecttolerance="10"
     borderopacity="0"
     bordercolor="#666666"
     pagecolor="#ffffff" />
  <g
     stroke="none"
     fill="#080808"
     id="layer101">
    <path
       id="path153"
       d="M0 480 l0 -480 480 0 480 0 0 480 0 480 -480 0 -480 0 0 -480z" />
  </g>
  <g
     stroke="none"
     fill="#fdfdfd"
     id="layer102">
    <path
       sodipodi:nodetypes="ccccccccccsscccccccccscccccccsccsccscssccsccsccccssscscscccscccsc"
       id="path156"
       d="M 0,480 V 0 H 480 960 V 480 960 H 480 0 Z m 463,423 c 12,-11 -15,-33 -40,-33 -34,0 -83,-51 -83,-87 0,-15 32,-173 72,-349 l 71,-321 35,20 c 48,29 122,28 162,-1 l 30,-22 5,22 c 129,570 145,649 131,681 -13,32 -42,53 -81,59 -11,2 -21,11 -23,21 -3,13 4,17 29,17 49,0 95,-34 115,-85 L 902,781 826,438 C 783,249 746,85 743,72 736,43 712,44 680,75 629,124 556,124 510,75 484,48 462,43 455,63 440,101 300,750 300,778 c 0,18 7,46 15,62 l 16,30 H 226 c -109,0 -133,-9 -120,-45 6,-14 15,-16 53,-11 82,12 86,12 86,-4 0,-18 -56,-39 -107,-39 -28,-1 -41,5 -57,25 -12,15 -21,34 -21,44 0,10 9,29 21,44 l 20,26 h 178 c 98,0 181,-3 184,-7 z m 222,-17 c 22,-34 79,-336 66,-349 -20,-20 -30,7 -63,168 -26,127 -37,160 -50,163 -16,3 -18,-10 -20,-130 -3,-117 -5,-133 -20,-136 -16,-3 -18,8 -18,116 0,134 -4,152 -31,152 -10,0 -19,-2 -19,-3 0,-9 -61,-304 -66,-319 -8,-25 -34,-22 -34,4 0,30 49,285 61,316 14,37 22,40 106,40 65,0 76,-3 88,-22 z M 546,279 c 7,-12 -15,-31 -28,-23 -4,3 -8,12 -8,20 0,17 26,19 36,3 z m 132,-6 c -4,-22 -28.53061,-20 -32.53061,1 -2,10 9.53061,16 19.53061,16 10,0 15,-7 13,-17 z" />
  </g>
</svg>
